<svg xmlns="http://www.w3.org/2000/svg" width="100" height="100" viewBox="0 0 100 100">
<style>:root {--ctp-rosewater: #f5e0dc;--ctp-flamingo: #d4d4d5;--ctp-pink: #c397d8;--ctp-mauve: #c397d8;--ctp-red: #e87979;--ctp-maroon: #e87979;--ctp-peach: #f0a988;--ctp-yellow: #e5d487;--ctp-green: #37d99e;--ctp-teal: #37d99e;--ctp-sky: #5fb0fc;--ctp-sapphire: #5fb0fc;--ctp-blue: #5fb0fc;--ctp-lavender: #c397d8;--ctp-text: #d4d4d5;--ctp-overlay1: #45484c;}</style>
    <path fill="none" stroke="var(--ctp-green)" stroke-linecap="round" stroke-linejoin="round" stroke-width="5" d="M53.846 4.143 87.791 23.74a7.686 7.686 0 0 1 3.846 6.662v39.196a7.689 7.689 0 0 1-3.846 6.662L53.846 95.858a7.688 7.688 0 0 1-7.692 0L12.209 76.26a7.686 7.686 0 0 1-3.846-6.662V30.402a7.693 7.693 0 0 1 3.846-6.662L46.154 4.143a7.687 7.687 0 0 1 7.692 0z"/>
    <path fill="none" stroke="var(--ctp-text)" stroke-linecap="round" stroke-linejoin="round" stroke-width="5" d="M64.965 70.026a25 25 0 0 1-33.492-3.24 25 25 0 0 1 .07-33.649 25 25 0 0 1 33.505-3.1"/>
    <path fill="none" stroke="var(--ctp-text)" stroke-linecap="round" stroke-linejoin="round" stroke-width="5" d="M52.5 55.127h19.017M53.464 44.96h19.017m-4.207-5.52L65.733 60.56m-6.836-21.12-2.541 21.12"/>
</svg>
