<svg xmlns="http://www.w3.org/2000/svg" width="100" height="100" viewBox="0 0 100 100">
<style>:root {--ctp-rosewater: #f5e0dc;--ctp-flamingo: #d4d4d5;--ctp-pink: #c397d8;--ctp-mauve: #c397d8;--ctp-red: #e87979;--ctp-maroon: #e87979;--ctp-peach: #f0a988;--ctp-yellow: #e5d487;--ctp-green: #37d99e;--ctp-teal: #37d99e;--ctp-sky: #5fb0fc;--ctp-sapphire: #5fb0fc;--ctp-blue: #5fb0fc;--ctp-lavender: #c397d8;--ctp-text: #d4d4d5;--ctp-overlay1: #45484c;}</style>
    <path fill="none" stroke="var(--ctp-green)" stroke-linecap="round" stroke-linejoin="round" stroke-width="5" d="M91.941 44.798C91.888 73.696 68.488 97.15 39.59 97.202V85.37l-.052-.051C17.132 79.507 3.624 56.682 9.384 34.276A41.886 41.886 0 0 1 60.374 4.12c18.48 4.764 31.566 21.622 31.566 40.73zM42.207 29.145 39.59 23.91m18.323 36.646 2.618 5.235M34.354 52.703l-5.236 2.618m15.706 5.235-2.618 5.235m13.088-36.646 2.618-5.235M71 52.703l-5.236-2.618m-31.41-10.47-5.236-2.618"/>
</svg>
