<svg xmlns="http://www.w3.org/2000/svg" width="100" height="100" viewBox="0 0 100 100">
<style>:root {--ctp-rosewater: #f5e0dc;--ctp-flamingo: #d4d4d5;--ctp-pink: #c397d8;--ctp-mauve: #c397d8;--ctp-red: #e87979;--ctp-maroon: #e87979;--ctp-peach: #f0a988;--ctp-yellow: #e5d487;--ctp-green: #37d99e;--ctp-teal: #37d99e;--ctp-sky: #5fb0fc;--ctp-sapphire: #5fb0fc;--ctp-blue: #5fb0fc;--ctp-lavender: #c397d8;--ctp-text: #d4d4d5;--ctp-overlay1: #45484c;}</style>
    <path fill="none" stroke="var(--ctp-text)" stroke-linecap="round" stroke-linejoin="round" stroke-width="5" d="M24.023 28.126H78.31s9.207.248 9.207 9.543V45M40 82.656H10.272S2.5 82.036 2.5 74.601V26.39s0-9.047 8.729-9.047h26.186s7.294 0 7.294 7.56v2.974" paint-order="fill markers stroke"/>
    <path fill="var(--ctp-blue)" stroke="var(--ctp-blue)" stroke-width="1.5" d="M50.533 54.593a4.331 4.331 0 0 1 4.33-4.331h31.763a4.331 4.331 0 0 1 4.33 4.331v20.212a4.331 4.331 0 0 1-4.33 4.331H70.745V76.25h15.88a1.444 1.444 0 0 0 1.444-1.444V54.593a1.444 1.444 0 0 0-1.443-1.444H54.864a1.444 1.444 0 0 0-1.444 1.444v4.331h-2.887zm20.212 30.318H92.4a1.444 1.444 0 0 0 0-2.887H70.745Zm-14.437 0a1.444 1.444 0 0 0 0 2.888h2.887a1.444 1.444 0 0 0 0-2.888zm-8.663-18.768a4.331 4.331 0 0 1 4.331-4.331h11.55a4.331 4.331 0 0 1 4.331 4.33v23.1a4.331 4.331 0 0 1-4.33 4.331h-11.55a4.331 4.331 0 0 1-4.332-4.33zm4.331-1.444a1.444 1.444 0 0 0-1.443 1.444v23.1a1.444 1.444 0 0 0 1.443 1.443h11.55a1.444 1.444 0 0 0 1.444-1.444v-23.1a1.444 1.444 0 0 0-1.444-1.443z"/>
</svg>
