<svg xmlns="http://www.w3.org/2000/svg" width="100" height="100" viewBox="0 0 100 100">
<style>:root {--ctp-rosewater: #f5e0dc;--ctp-flamingo: #d4d4d5;--ctp-pink: #c397d8;--ctp-mauve: #c397d8;--ctp-red: #e87979;--ctp-maroon: #e87979;--ctp-peach: #f0a988;--ctp-yellow: #e5d487;--ctp-green: #37d99e;--ctp-teal: #37d99e;--ctp-sky: #5fb0fc;--ctp-sapphire: #5fb0fc;--ctp-blue: #5fb0fc;--ctp-lavender: #c397d8;--ctp-text: #d4d4d5;--ctp-overlay1: #45484c;}</style>
    <path fill="none" stroke="var(--ctp-peach)" stroke-linecap="round" stroke-linejoin="round" stroke-width="5" d="M58.048 7.518a9.353 9.353 0 0 1-3.45 12.72l-27.63 15.88a2.359 2.359 0 0 0-1.179 2.048V63.1a2.359 2.359 0 0 0 1.18 2.048L48.842 77.72a2.322 2.322 0 0 0 2.321 0l21.87-12.564a2.359 2.359 0 0 0 1.18-2.049V47.607l-19.66 11.146a9.236 9.236 0 0 1-12.625-3.538 9.353 9.353 0 0 1 3.517-12.7l28.131-15.963a12.858 12.858 0 0 1 19.172 11.26v27.181a17.763 17.763 0 0 1-8.888 15.405L58.75 94.83a17.555 17.555 0 0 1-17.503 0L16.139 80.395A17.763 17.763 0 0 1 7.251 64.99V36.276a17.76 17.76 0 0 1 8.888-15.405L45.402 4.05a9.242 9.242 0 0 1 12.646 3.467z"/>
</svg>
