<svg xmlns="http://www.w3.org/2000/svg" width="100" height="100" viewBox="0 0 100 100">
<style>:root {--ctp-rosewater: #f5e0dc;--ctp-flamingo: #d4d4d5;--ctp-pink: #c397d8;--ctp-mauve: #c397d8;--ctp-red: #e87979;--ctp-maroon: #e87979;--ctp-peach: #f0a988;--ctp-yellow: #e5d487;--ctp-green: #37d99e;--ctp-teal: #37d99e;--ctp-sky: #5fb0fc;--ctp-sapphire: #5fb0fc;--ctp-blue: #5fb0fc;--ctp-lavender: #c397d8;--ctp-text: #d4d4d5;--ctp-overlay1: #45484c;}</style>
    <path fill="none" stroke="var(--ctp-sapphire)" stroke-linecap="round" stroke-linejoin="round" stroke-width="5" d="M75.104 31.024c2.666 1.332 3.636 4.95 10.425 23.615 6.788 18.662-6.304 29.517-6.304 29.517s-45.82 17.9-45.82 11.806c-1.211-6.665-13.09-15.044-13.09-15.044s-3.56-4.568.393-5.475c40.11-9.214 47.245-13.378 49.548-23.471M45.77 69.11C13.362 70.95 12.38 50.642 12.555 50.066 19.989 25.374 58.457-1.414 69.043 3.41c22.396 10.612-11.195 57.94-26.426 55.417C6.332 52.82 56.921 14.455 56.921 14.455c14.627-8.95-1.294 27.804-7.516 28.757" paint-order="fill markers stroke"/>
</svg>
