<svg xmlns="http://www.w3.org/2000/svg" width="100" height="100" viewBox="0 0 100 100">
<style>:root {--ctp-rosewater: #f5e0dc;--ctp-flamingo: #d4d4d5;--ctp-pink: #c397d8;--ctp-mauve: #c397d8;--ctp-red: #e87979;--ctp-maroon: #e87979;--ctp-peach: #f0a988;--ctp-yellow: #e5d487;--ctp-green: #37d99e;--ctp-teal: #37d99e;--ctp-sky: #5fb0fc;--ctp-sapphire: #5fb0fc;--ctp-blue: #5fb0fc;--ctp-lavender: #c397d8;--ctp-text: #d4d4d5;--ctp-overlay1: #45484c;}</style>
    <path fill="none" stroke="var(--ctp-green)" stroke-linecap="round" stroke-linejoin="round" stroke-width="5" d="M61.801 79.328H97.47L68.803 32.033S46.483 67.697 46.246 68.1c-.237.401-.737 1.423-1.42 2.41-.684.987-1.836 2.556-2.676 3.501-.84.945-1.436 1.55-2.345 2.147-.908.596-1.97 1.033-3.038 1.387-1.069.354-2.221.561-3.336.727-1.114.165-2.78.22-3.335.264-.278.022-14.746.016-22.953.016-6.34.19-4.913-2.817-2.795-6.11L36.7 20.672l18.891 28.8" paint-order="fill markers stroke"/>
</svg>
