<svg xmlns="http://www.w3.org/2000/svg" width="100" height="100" viewBox="0 0 100 100">
<style>:root {--ctp-rosewater: #f5e0dc;--ctp-flamingo: #d4d4d5;--ctp-pink: #c397d8;--ctp-mauve: #c397d8;--ctp-red: #e87979;--ctp-maroon: #e87979;--ctp-peach: #f0a988;--ctp-yellow: #e5d487;--ctp-green: #37d99e;--ctp-teal: #37d99e;--ctp-sky: #5fb0fc;--ctp-sapphire: #5fb0fc;--ctp-blue: #5fb0fc;--ctp-lavender: #c397d8;--ctp-text: #d4d4d5;--ctp-overlay1: #45484c;}</style>
    <path fill="none" stroke="var(--ctp-sapphire)" stroke-linecap="round" stroke-linejoin="round" stroke-width="5" d="M2.542 20.51v58.98h14.575V44.656l20.924 34.832h14.03l6.29-9.312 6.047 9.312h13.909L65.254 59.291s.177-6.405 5.861-9.55c5.685-3.144 9.918 0 9.918 0s2.54 1.935 3.145 3.629c.605 1.693 3.024 2.056 4.475 2.781 1.451.726 2.66 1.33 3.024 3.508.362 2.177 3.144 3.75 5.321 1.33 2.177-2.419-3.386-20.319-16.57-22.496C67.245 36.316 58.36 46.23 58.36 46.23l-6.531-9.071V20.51H37.92v34.548L17.117 20.51Z" paint-order="fill markers stroke"/>
    <path fill="none" stroke="var(--ctp-sapphire)" stroke-linecap="round" stroke-linejoin="round" stroke-width="5" d="M38.404 35.466h12.941" paint-order="fill markers stroke"/>
    <path fill="none" stroke="var(--ctp-sapphire)" stroke-linecap="round" stroke-linejoin="round" stroke-width="5" d="m38.041 77.796 12.7-19.23-12.724-20.697" paint-order="fill markers stroke"/>
</svg>
