<svg xmlns="http://www.w3.org/2000/svg" width="100" height="100" viewBox="0 0 100 100">
<style>:root {--ctp-rosewater: #f5e0dc;--ctp-flamingo: #d4d4d5;--ctp-pink: #c397d8;--ctp-mauve: #c397d8;--ctp-red: #e87979;--ctp-maroon: #e87979;--ctp-peach: #f0a988;--ctp-yellow: #e5d487;--ctp-green: #37d99e;--ctp-teal: #37d99e;--ctp-sky: #5fb0fc;--ctp-sapphire: #5fb0fc;--ctp-blue: #5fb0fc;--ctp-lavender: #c397d8;--ctp-text: #d4d4d5;--ctp-overlay1: #45484c;}</style>
    <path fill="none" stroke="var(--ctp-peach)" stroke-linecap="round" stroke-linejoin="round" stroke-width="5" d="M97.229 59.625c-45.33 28.9-94.458 0-94.458 0l6.194-7.45-4.598-10.22 11.069-5.025V26.04l11.069-.335 4.938-10.22L41.66 19.34l8.685-7.706 8.855 8.041 9.494-4.565 5.534 10.68 11.197-.042.042 11.308 10.686 4.566-4.598 10.052z"/>
    <path fill="none" stroke="var(--ctp-peach)" stroke-linecap="round" stroke-linejoin="round" stroke-width="5" d="M32.823 42.936a5.876 7.431 0 0 1 6.672 2.459 5.876 7.431 0 0 1 .151 8.786 5.876 7.431 0 0 1-6.58 2.825 5.876 7.431 0 0 1-4.109-7.087" paint-order="stroke fill markers"/>
    <path fill="none" stroke="var(--ctp-peach)" stroke-linecap="round" stroke-linejoin="round" stroke-width="5" d="M64.498 42.875a5.876 7.431 0 0 1 6.671 2.459 5.876 7.431 0 0 1 .152 8.786 5.876 7.431 0 0 1-6.58 2.825 5.876 7.431 0 0 1-4.11-7.087" paint-order="stroke fill markers"/>
    <g fill="none" stroke="var(--ctp-peach)" stroke-linecap="round" stroke-linejoin="round" stroke-width="5" paint-order="stroke fill markers">
        <path d="M79.05 73.743a11 10.5 0 0 1 5.128 11.633 11 10.5 0 0 1-10.284 7.932" transform="translate(-.79 -4.984)"/>
        <path d="M73.377 93.277V83.218" transform="translate(-.79 -4.984)"/>
    </g>
    <g fill="none" stroke="var(--ctp-peach)" stroke-linecap="round" stroke-linejoin="round" stroke-width="5" paint-order="stroke fill markers">
        <path d="M79.05 73.743a11 10.5 0 0 1 5.128 11.633 11 10.5 0 0 1-10.284 7.932" transform="matrix(-1 0 0 1 100.7 -4.94)"/>
        <path d="M73.377 93.277V83.218" transform="matrix(-1 0 0 1 100.7 -4.94)"/>
    </g>
</svg>
