<svg xmlns="http://www.w3.org/2000/svg" width="100" height="100" viewBox="0 0 100 100">
<style>:root {--ctp-rosewater: #f5e0dc;--ctp-flamingo: #d4d4d5;--ctp-pink: #c397d8;--ctp-mauve: #c397d8;--ctp-red: #e87979;--ctp-maroon: #e87979;--ctp-peach: #f0a988;--ctp-yellow: #e5d487;--ctp-green: #37d99e;--ctp-teal: #37d99e;--ctp-sky: #5fb0fc;--ctp-sapphire: #5fb0fc;--ctp-blue: #5fb0fc;--ctp-lavender: #c397d8;--ctp-text: #d4d4d5;--ctp-overlay1: #45484c;}</style>
    <path fill="none" stroke="var(--ctp-sapphire)" stroke-linecap="round" stroke-linejoin="round" stroke-width="5" d="M50 19.646c-12.593 0-20.458 6.746-23.608 20.236 4.721-6.745 10.232-9.275 16.525-7.588 3.596.964 6.159 3.757 8.999 6.846C56.55 44.172 61.906 50 73.608 50c12.594 0 20.459-6.745 23.609-20.236-4.722 6.745-10.233 9.275-16.526 7.589-3.595-.965-6.158-3.757-8.998-6.847-4.634-5.032-9.99-10.86-21.693-10.86zM26.392 50C13.798 50 5.933 56.745 2.783 70.236c4.722-6.745 10.233-9.275 16.526-7.589 3.595.965 6.158 3.757 8.998 6.847 4.634 5.032 9.99 10.86 21.693 10.86 12.593 0 20.458-6.746 23.608-20.236-4.721 6.745-10.232 9.275-16.525 7.588-3.596-.964-6.159-3.757-8.999-6.846C43.45 55.828 38.094 50 26.392 50Z" clip-rule="evenodd"/>
</svg>
