<svg xmlns="http://www.w3.org/2000/svg" width="100" height="100" viewBox="0 0 100 100">
<style>:root {--ctp-rosewater: #f5e0dc;--ctp-flamingo: #d4d4d5;--ctp-pink: #c397d8;--ctp-mauve: #c397d8;--ctp-red: #e87979;--ctp-maroon: #e87979;--ctp-peach: #f0a988;--ctp-yellow: #e5d487;--ctp-green: #37d99e;--ctp-teal: #37d99e;--ctp-sky: #5fb0fc;--ctp-sapphire: #5fb0fc;--ctp-blue: #5fb0fc;--ctp-lavender: #c397d8;--ctp-text: #d4d4d5;--ctp-overlay1: #45484c;}</style>
    <path fill="none" stroke="var(--ctp-sapphire)" stroke-linecap="round" stroke-linejoin="round" stroke-width="3.69138" d="M40.234 25.146 10.047 42.561l-30.175-17.434.011-34.85L10.07-27.138 40.245-9.704z" paint-order="fill markers stroke" transform="matrix(1.3545 0 0 1.3545 36.376 39.555)"/>
    <path fill="none" stroke="var(--ctp-sapphire)" stroke-linecap="round" stroke-linejoin="round" stroke-width="5" d="M50 3.47v18.446m0 56.11v17.427" paint-order="fill markers stroke"/>
    <path fill="none" stroke="var(--ctp-sapphire)" stroke-linecap="round" stroke-linejoin="round" stroke-width="5" d="m25.633 64.354-15.205 8.778M74.534 64.354l15.205 8.778" paint-order="fill markers stroke"/>
    <path fill="none" stroke="var(--ctp-blue)" stroke-linecap="round" stroke-linejoin="round" stroke-width="6.43461" d="M40.234 25.146 10.047 42.561l-30.175-17.434.011-34.85L10.07-27.138 40.245-9.704z" paint-order="fill markers stroke" transform="matrix(.77705 0 0 .77705 42.184 44.008)"/>
    <path fill="none" stroke="var(--ctp-sapphire)" stroke-linecap="round" stroke-linejoin="round" stroke-width="5" d="m10.5 27.54 39.381 22.737M89.499 27.54 50.118 50.278" paint-order="fill markers stroke"/>
    <path fill="none" stroke="var(--ctp-sapphire)" stroke-linecap="round" stroke-linejoin="round" stroke-width="5" d="M50.04 50.04v30.55" paint-order="fill markers stroke"/>
</svg>
