<svg xmlns="http://www.w3.org/2000/svg" width="100" height="100" viewBox="0 0 100 100">
<style>:root {--ctp-rosewater: #f5e0dc;--ctp-flamingo: #d4d4d5;--ctp-pink: #c397d8;--ctp-mauve: #c397d8;--ctp-red: #e87979;--ctp-maroon: #e87979;--ctp-peach: #f0a988;--ctp-yellow: #e5d487;--ctp-green: #37d99e;--ctp-teal: #37d99e;--ctp-sky: #5fb0fc;--ctp-sapphire: #5fb0fc;--ctp-blue: #5fb0fc;--ctp-lavender: #c397d8;--ctp-text: #d4d4d5;--ctp-overlay1: #45484c;}</style>
    <path fill="none" stroke="var(--ctp-mauve)" stroke-width="0.95" d="M12 3c7.2 0 9 1.8 9 9s-1.8 9-9 9-9-1.8-9-9 1.8-9 9-9Z" transform="matrix(5.26316 0 0 5.26316 -13.158 -13.158)"/>
    <path fill="none" stroke="var(--ctp-mauve)" stroke-width="0.95" d="M8.863 16.922C10 16.5 10.5 16 12 16s2 .5 3.138.922c.713.264 1.516-.102 1.778-.772.126-.32.11-.673-.044-.983l-3.708-7.474c-.297-.598-1.058-.859-1.7-.583a1.24 1.24 0 0 0-.627.583l-3.709 7.474c-.321.648-.017 1.415.679 1.714.332.143.715.167 1.056.04z" transform="matrix(5.26316 0 0 5.26316 -13.158 -13.158)"/>
</svg>
