<svg xmlns="http://www.w3.org/2000/svg" width="100" height="100" viewBox="0 0 100 100">
<style>:root {--ctp-rosewater: #f5e0dc;--ctp-flamingo: #d4d4d5;--ctp-pink: #c397d8;--ctp-mauve: #c397d8;--ctp-red: #e87979;--ctp-maroon: #e87979;--ctp-peach: #f0a988;--ctp-yellow: #e5d487;--ctp-green: #37d99e;--ctp-teal: #37d99e;--ctp-sky: #5fb0fc;--ctp-sapphire: #5fb0fc;--ctp-blue: #5fb0fc;--ctp-lavender: #c397d8;--ctp-text: #d4d4d5;--ctp-overlay1: #45484c;}</style>
    <path fill="none" stroke="var(--ctp-text)" stroke-linecap="round" stroke-linejoin="round" stroke-width="5" d="M24.023 28.126H78.31s9.207.248 9.207 9.543V45M40 82.656H10.272S2.5 82.036 2.5 74.601V26.39s0-9.047 8.729-9.047h26.186s7.294 0 7.294 7.56v2.974" paint-order="fill markers stroke"/>
    <path fill="none" stroke="var(--ctp-teal)" stroke-linecap="round" stroke-linejoin="round" stroke-width="5" d="m54.45 92.21-7.743-24.658c-.237-.756.278-1.592 1.15-1.866l34.462-10.82c.527-.166 1.094-.094 1.509.195l13.357 9.35c.499.349.687.949.477 1.52l-5.614 15.307c-.174.474-.597.858-1.126 1.024L56.46 93.082c-.873.275-1.774-.116-2.011-.873z"/>
    <circle cx="97.333" cy="46.247" r="6.147" fill="none" stroke="var(--ctp-teal)" stroke-linecap="round" stroke-linejoin="round" stroke-width="5" paint-order="fill markers stroke" transform="rotate(15)"/>
</svg>
