<svg xmlns="http://www.w3.org/2000/svg" width="100" height="100" viewBox="0 0 100 100">
<style>:root {--ctp-rosewater: #f5e0dc;--ctp-flamingo: #d4d4d5;--ctp-pink: #c397d8;--ctp-mauve: #c397d8;--ctp-red: #e87979;--ctp-maroon: #e87979;--ctp-peach: #f0a988;--ctp-yellow: #e5d487;--ctp-green: #37d99e;--ctp-teal: #37d99e;--ctp-sky: #5fb0fc;--ctp-sapphire: #5fb0fc;--ctp-blue: #5fb0fc;--ctp-lavender: #c397d8;--ctp-text: #d4d4d5;--ctp-overlay1: #45484c;}</style>
    <path fill="none" stroke="var(--ctp-overlay1)" stroke-width="5" d="m52.747 3.446 36.197 20.898a5.49 5.49 0 0 1 2.747 4.757V70.9a5.49 5.49 0 0 1-2.747 4.758L52.747 96.554a5.49 5.49 0 0 1-5.494 0L11.056 75.656A5.491 5.491 0 0 1 8.309 70.9V29.102a5.493 5.493 0 0 1 2.747-4.758L47.253 3.446a5.488 5.488 0 0 1 5.494 0z"/>
    <path fill="none" stroke="var(--ctp-text)" stroke-linecap="round" stroke-linejoin="round" stroke-width="5" d="M34.238 50.296h31.228m.592-23.976v47.36M33.942 26.32v47.36"/>
</svg>
