<svg xmlns="http://www.w3.org/2000/svg" width="100" height="100" viewBox="0 0 100 100">
<style>:root {--ctp-rosewater: #f5e0dc;--ctp-flamingo: #d4d4d5;--ctp-pink: #c397d8;--ctp-mauve: #c397d8;--ctp-red: #e87979;--ctp-maroon: #e87979;--ctp-peach: #f0a988;--ctp-yellow: #e5d487;--ctp-green: #37d99e;--ctp-teal: #37d99e;--ctp-sky: #5fb0fc;--ctp-sapphire: #5fb0fc;--ctp-blue: #5fb0fc;--ctp-lavender: #c397d8;--ctp-text: #d4d4d5;--ctp-overlay1: #45484c;}</style>
    <path fill="none" stroke="var(--ctp-peach)" stroke-linecap="round" stroke-linejoin="round" stroke-width="5" d="M50.026 37.74a10.612 10.612 0 0 0-15.659-1.483c-6.159 5.491-11.28 16.623-21.001 16.623a6.605 6.605 0 0 1-3.71-11.132c-7.421 0-9.574 12.69-3.71 18.553a29.016 29.016 0 0 0 29.683 3.71 35.324 35.324 0 0 0 14.397-11.057Zm-.01 0a10.612 10.612 0 0 1 15.66-1.483C71.76 41.748 76.954 52.88 86.601 52.88a6.605 6.605 0 0 0 3.71-11.132c7.422 0 9.648 12.69 3.711 18.553a29.016 29.016 0 0 1-29.684 3.71 33.914 33.914 0 0 1-14.322-11.057Z" class="cls-1"/>
</svg>
