<svg xmlns="http://www.w3.org/2000/svg" width="100" height="100" viewBox="0 0 100 100">
<style>:root {--ctp-rosewater: #f5e0dc;--ctp-flamingo: #d4d4d5;--ctp-pink: #c397d8;--ctp-mauve: #c397d8;--ctp-red: #e87979;--ctp-maroon: #e87979;--ctp-peach: #f0a988;--ctp-yellow: #e5d487;--ctp-green: #37d99e;--ctp-teal: #37d99e;--ctp-sky: #5fb0fc;--ctp-sapphire: #5fb0fc;--ctp-blue: #5fb0fc;--ctp-lavender: #c397d8;--ctp-text: #d4d4d5;--ctp-overlay1: #45484c;}</style>
    <path fill="none" stroke="var(--ctp-blue)" stroke-linecap="round" stroke-linejoin="round" stroke-width="5" d="M25.914 28.612a32.22 32.22 0 0 1 24.08-10.833 32.22 32.22 0 0 1 24.092 10.805" paint-order="fill markers stroke"/>
    <path fill="none" stroke="var(--ctp-blue)" stroke-linecap="round" stroke-linejoin="round" stroke-width="5" d="M50 17.271V2.903M30.603 24.006 23.42 11.562M70.833 24.006l7.185-12.444" paint-order="fill markers stroke"/>
    <path fill="none" stroke="var(--ctp-blue)" stroke-linecap="round" stroke-linejoin="round" stroke-width="5" d="M25.914-72.134a32.22 32.22 0 0 1 24.08-10.833 32.22 32.22 0 0 1 24.092 10.805" paint-order="fill markers stroke" transform="scale(1 -1)"/>
    <path fill="none" stroke="var(--ctp-blue)" stroke-linecap="round" stroke-linejoin="round" stroke-width="5" d="M50 83.475v14.368M30.603 76.74 23.42 89.184M70.833 76.74l7.185 12.444" paint-order="fill markers stroke"/>
    <path fill="none" stroke="var(--ctp-blue)" stroke-linecap="round" stroke-linejoin="round" stroke-width="5" d="M9.58 41.8v16.545M22.061 41.8v16.545M34.253 41.8v16.545M53.774 41.8v16.545M73.295 41.8v16.545M90.42 41.8v16.545M10.232 50.073h11.176M35.922 50.073h5.442M34.652 41.8h7.638M34.652 58.332h7.638M53.997 58.332h7.638M73.476 41.988 81.82 50.8M90.27 41.988 81.82 50.8" paint-order="fill markers stroke"/>
</svg>
