<svg xmlns="http://www.w3.org/2000/svg" width="100" height="100" viewBox="0 0 100 100">
<style>:root {--ctp-rosewater: #f5e0dc;--ctp-flamingo: #d4d4d5;--ctp-pink: #c397d8;--ctp-mauve: #c397d8;--ctp-red: #e87979;--ctp-maroon: #e87979;--ctp-peach: #f0a988;--ctp-yellow: #e5d487;--ctp-green: #37d99e;--ctp-teal: #37d99e;--ctp-sky: #5fb0fc;--ctp-sapphire: #5fb0fc;--ctp-blue: #5fb0fc;--ctp-lavender: #c397d8;--ctp-text: #d4d4d5;--ctp-overlay1: #45484c;}</style>
    <path fill="none" stroke="var(--ctp-red)" stroke-linecap="round" stroke-linejoin="round" stroke-width="5" d="M76.319 47.895v17.894A31.579 31.579 0 0 1 44.74 97.37H34.214a31.579 31.579 0 0 1-31.58-31.58V47.895a3.158 3.158 0 0 1 3.159-3.158H73.16a3.158 3.158 0 0 1 3.158 3.158zM50.003 34.21c0-5.264 3.758-10.527 11.28-10.527v0A15.037 15.037 0 0 0 76.318 8.647V5.263M28.95 34.211v-2.632a15.79 15.79 0 0 1 15.789-15.79v0A10.526 10.526 0 0 0 55.266 5.263V2.632"/>
    <path fill="none" stroke="var(--ctp-red)" stroke-linecap="round" stroke-linejoin="round" stroke-width="5" d="M71.056 44.737h13.158a13.158 13.158 0 0 1 0 26.316h-7.895"/>
</svg>
