<svg xmlns="http://www.w3.org/2000/svg" width="100" height="100" viewBox="0 0 100 100">
<style>:root {--ctp-rosewater: #f5e0dc;--ctp-flamingo: #d4d4d5;--ctp-pink: #c397d8;--ctp-mauve: #c397d8;--ctp-red: #e87979;--ctp-maroon: #e87979;--ctp-peach: #f0a988;--ctp-yellow: #e5d487;--ctp-green: #37d99e;--ctp-teal: #37d99e;--ctp-sky: #5fb0fc;--ctp-sapphire: #5fb0fc;--ctp-blue: #5fb0fc;--ctp-lavender: #c397d8;--ctp-text: #d4d4d5;--ctp-overlay1: #45484c;}</style>
    <path fill="none" stroke="var(--ctp-text)" stroke-width="5" d="M73.41 33.98a6.334 6.334 0 1 0 0-12.669 6.334 6.334 0 0 0 0 12.67z"/>
    <path fill="none" stroke="var(--ctp-text)" stroke-linecap="round" stroke-linejoin="round" stroke-width="5" d="M36.452 46.098A31.48 31.48 0 0 1 48.647 8.364a31.48 31.48 0 0 1 39.44 4.139 31.48 31.48 0 0 1 4.096 39.443A31.48 31.48 0 0 1 54.436 64.1" paint-order="fill markers stroke"/>
    <path fill="none" stroke="var(--ctp-text)" stroke-linecap="round" stroke-linejoin="round" stroke-width="5" d="M36.489 46.072 2.711 79.997v16.726h14.703V85.771h16.428V73.747h10.953l9.593-9.594" paint-order="fill markers stroke"/>
</svg>
