<svg xmlns="http://www.w3.org/2000/svg" width="100" height="100" viewBox="0 0 100 100">
<style>:root {--ctp-rosewater: #f5e0dc;--ctp-flamingo: #d4d4d5;--ctp-pink: #c397d8;--ctp-mauve: #c397d8;--ctp-red: #e87979;--ctp-maroon: #e87979;--ctp-peach: #f0a988;--ctp-yellow: #e5d487;--ctp-green: #37d99e;--ctp-teal: #37d99e;--ctp-sky: #5fb0fc;--ctp-sapphire: #5fb0fc;--ctp-blue: #5fb0fc;--ctp-lavender: #c397d8;--ctp-text: #d4d4d5;--ctp-overlay1: #45484c;}</style>
    <path fill="none" stroke="var(--ctp-blue)" stroke-linecap="round" stroke-linejoin="round" stroke-width="5" d="M80.925 97.435V73.03c-6.922-4.353-8.797-11.414-8.797-20.949m-18.41 12.334V79.38l6.258 18.055M37.122 64.507v32.928m59.13 0v-38.46s-1.542-12.153-9.885-12.153c.181-6.802-.998-44.166-16.052-44.257C55.26 2.475 54.444 22.7 54.444 22.7c-9.341 4.232-15.236 11.457-16.869 20.858V17.983c0-4.57-4.29-9.613-8.887-9.613-6.597 0-9.6 5.25-10.792 9.703H9.099c-2.993.802-5.35 4.351-5.35 7.346 0 3.67 2.213 7.437 5.531 7.437h12.062v19.407c0 6.97 6.328 11.88 13.331 11.88H60.34" paint-order="fill markers stroke"/>
</svg>
