<svg xmlns="http://www.w3.org/2000/svg" width="100" height="100" viewBox="0 0 100 100">
<style>:root {--ctp-rosewater: #f5e0dc;--ctp-flamingo: #d4d4d5;--ctp-pink: #c397d8;--ctp-mauve: #c397d8;--ctp-red: #e87979;--ctp-maroon: #e87979;--ctp-peach: #f0a988;--ctp-yellow: #e5d487;--ctp-green: #37d99e;--ctp-teal: #37d99e;--ctp-sky: #5fb0fc;--ctp-sapphire: #5fb0fc;--ctp-blue: #5fb0fc;--ctp-lavender: #c397d8;--ctp-text: #d4d4d5;--ctp-overlay1: #45484c;}</style>
    <path fill="none" stroke="var(--ctp-overlay1)" stroke-linecap="round" stroke-linejoin="round" stroke-width="5" d="M50 2.856c-6.289 0-8.521 9.608-14.732 11.786-6.211 2.179-15.764-4.861-20.626 0-4.861 4.862 2.179 14.415 0 20.626C12.464 41.478 2.856 43.71 2.856 50s9.608 8.521 11.786 14.732c2.179 6.211-4.86 15.762 0 20.626 4.86 4.863 14.416-2.162 20.626.017 6.209 2.178 8.445 11.77 14.732 11.769 6.287-.002 8.521-9.608 14.732-11.786 6.211-2.179 15.762 4.86 20.626 0 4.863-4.86-2.162-14.416.017-20.626 2.178-6.209 11.77-8.445 11.769-14.732-.002-6.287-9.608-8.521-11.786-14.732-2.179-6.211 4.861-15.764 0-20.626-4.862-4.861-14.415 2.179-20.626 0C58.522 12.464 56.29 2.856 50 2.856Z" paint-order="fill markers stroke"/>
    <circle cx="50" cy="50" r="17.679" fill="none" stroke="var(--ctp-overlay1)" stroke-linecap="round" stroke-linejoin="round" stroke-width="5" paint-order="fill markers stroke"/>
</svg>
