<svg xmlns="http://www.w3.org/2000/svg" width="100" height="100" viewBox="0 0 100 100">
<style>:root {--ctp-rosewater: #f5e0dc;--ctp-flamingo: #d4d4d5;--ctp-pink: #c397d8;--ctp-mauve: #c397d8;--ctp-red: #e87979;--ctp-maroon: #e87979;--ctp-peach: #f0a988;--ctp-yellow: #e5d487;--ctp-green: #37d99e;--ctp-teal: #37d99e;--ctp-sky: #5fb0fc;--ctp-sapphire: #5fb0fc;--ctp-blue: #5fb0fc;--ctp-lavender: #c397d8;--ctp-text: #d4d4d5;--ctp-overlay1: #45484c;}</style>
    <path fill="none" stroke="var(--ctp-peach)" stroke-linecap="round" stroke-linejoin="round" stroke-width="4.94952" d="M27.883 17.326V12.95L50 2.475l22.117 10.474v4.377m-44.234 0L50 33.43M27.883 17.326 10.628 33.43m39.372 0L27.883 48.437M50 33.429l22.117-16.103M50 33.43l22.117 15.008m-44.234 0L50 68.76M27.883 48.437 10.628 33.429m17.255 15.008L9.275 59.849M50 68.759 27.883 80.486M50 68.76l22.117-20.323M50 68.76l22.117 11.725m-44.234 0L50 97.525l22.117-17.04m-44.234 0h-8.314L9.275 59.85m1.353-26.42L5.922 53.127l3.353 6.722m62.842-42.523L89.372 33.43M72.117 48.437l17.255-15.008M72.117 48.437l18.607 11.412M72.117 80.485h8.314L90.724 59.85m-1.352-26.42 4.706 19.698-3.354 6.722"/>
</svg>
