<svg xmlns="http://www.w3.org/2000/svg" width="100" height="100" viewBox="0 0 100 100">
<style>:root {--ctp-rosewater: #f5e0dc;--ctp-flamingo: #d4d4d5;--ctp-pink: #c397d8;--ctp-mauve: #c397d8;--ctp-red: #e87979;--ctp-maroon: #e87979;--ctp-peach: #f0a988;--ctp-yellow: #e5d487;--ctp-green: #37d99e;--ctp-teal: #37d99e;--ctp-sky: #5fb0fc;--ctp-sapphire: #5fb0fc;--ctp-blue: #5fb0fc;--ctp-lavender: #c397d8;--ctp-text: #d4d4d5;--ctp-overlay1: #45484c;}</style>
    <path fill="none" stroke="var(--ctp-pink)" stroke-linecap="round" stroke-linejoin="round" stroke-width="5" d="M41.163 38.196c13.121 7.788 23.81 5.437 34.398-1.471 10.588-6.909 19.214-20.267 9.23-30.244-4.993-4.989-23.167-5.82-40 1.37-16.834 7.191-32.694 22.037-33.796 30.009C8.79 53.804 33.46 58.882 36.932 68.732c3.471 9.85 1.984 14.405-1.472 20.602-3.456 6.198-13.935 11.859-19.866 4.967-5.932-6.891 11.862-20.071 21.154-23.73 9.291-3.658 22.174-2.865 26.305 1.84 4.13 4.705-.455 13.06-.184 13.06" paint-order="fill markers stroke"/>
</svg>
